HIERARCHY
ROOT Hips
{
  OFFSET 1.44925e-005 102.336 -0.101585
  CHANNELS 6 Xposition Yposition Zposition Zrotation Xrotation Yrotation
  JOINT LeftUpLeg
  {
    OFFSET 8.9458 -8.66707 0.101652
    CHANNELS 3 Zrotation Xrotation Yrotation
    JOINT LeftLeg
    {
      OFFSET 0 -44.4227 1.3727
      CHANNELS 3 Zrotation Xrotation Yrotation
      JOINT LeftFoot
      {
        OFFSET -0.253549 -42.0924 -1.46059
        CHANNELS 3 Zrotation Xrotation Yrotation
        JOINT LeftToes
        {
          OFFSET -0.04 -4.41509 8.4991
          CHANNELS 3 Zrotation Xrotation Yrotation
          End Site
          {
            OFFSET 0.08 -0.047448 9.77979
          }
        }
      }
    }
  }
  JOINT Spine
  {
    OFFSET 0 11.8905 0
    CHANNELS 3 Zrotation Xrotation Yrotation
    JOINT Spine1
    {
      OFFSET 0 25.6574 0.127663
      CHANNELS 3 Zrotation Xrotation Yrotation
      JOINT RightShoulder
      {
        OFFSET -8.99 -0.362252 -0.22
        CHANNELS 3 Zrotation Xrotation Yrotation
        JOINT RightArm
        {
          OFFSET -10.2827 -0.00338 0.322123
          CHANNELS 3 Zrotation Xrotation Yrotation
          JOINT RightForeArm
          {
            OFFSET -26.364 0.099144 -1.42434
            CHANNELS 3 Zrotation Xrotation Yrotation
            JOINT RightHand
            {
              OFFSET -22.0324 0.085362 1.02216
              CHANNELS 3 Zrotation Xrotation Yrotation
              End Site
              {
                OFFSET -13.3284 -0.6 1.50291
              }
            }
          }
        }
      }
      JOINT LeftShoulder1
      {
        OFFSET 8.99 -0.362252 -0.22
        CHANNELS 3 Zrotation Xrotation Yrotation
        JOINT LeftArm
        {
          OFFSET 10.2827 -0.00337999 0.322123
          CHANNELS 3 Zrotation Xrotation Yrotation
          JOINT LeftForeArm
          {
            OFFSET 26.2597 0.099144 -1.42434
            CHANNELS 3 Zrotation Xrotation Yrotation
            JOINT LeftHand
            {
              OFFSET 22.0902 0.085362 1.02216
              CHANNELS 3 Zrotation Xrotation Yrotation
              End Site
              {
                OFFSET 13.419 -0.6 1.50291
              }
            }
          }
        }
      }
      JOINT Head
      {
        OFFSET 0 8.73416 0.011341
        CHANNELS 3 Zrotation Xrotation Yrotation
        End Site
        {
          OFFSET -0.29 12.7742 2.51395
        }
      }
    }
  }
  JOINT RightUpLeg
  {
    OFFSET -8.9458 -8.66707 0.101652
    CHANNELS 3 Zrotation Xrotation Yrotation
    JOINT RightLeg
    {
      OFFSET 0 -44.4227 1.3727
      CHANNELS 3 Zrotation Xrotation Yrotation
      JOINT RightFoot
      {
        OFFSET 0.253549 -42.0924 -1.46059
        CHANNELS 3 Zrotation Xrotation Yrotation
        JOINT RightToes
        {
          OFFSET 0.04 -4.41509 8.4991
          CHANNELS 3 Zrotation Xrotation Yrotation
          End Site
          {
            OFFSET -0.08 -0.137448 9.77979
          }
        }
      }
    }
  }
}
MOTION
Frames:	8
Frame Time:	0.0333333
17.6537 90.7496 -1.33859 -7.80902 0.922582 -91.6683 2.16152 -21.6495 -1.2794 1.71567 57.7931 17.6331 -12.6946 -29.7016 -2.40003 -1.30296e-009 8.75239e-006 -1.47603e-008 2.06833 23.4856 0.403344 -1.31554 -2.21457 1.22406 37.6129 1.82622 0.17128 34.6777 -11.397 16.0919 8.08907 14.9517 33.906 -12.6085 9.57725 -2.32572 -45.5451 3.65639 -3.4834 -26.7849 -8.24408 -3.00206 -3.66882 27.9016 -17.7073 5.82328 9.61819 -0.917488 0.615392 -21.0375 -5.98231 -4.09336 -18.4395 -7.121 -1.59812 57.5324 -14.8778 11.1853 -32.4269 2.21649 0.0462048 0.000530889 0.662642 
17.8793 90.7757 -1.23672 -7.6556 0.802633 -91.4428 1.78551 -21.9754 -1.69773 1.72046 57.6704 17.8158 -12.5425 -29.4142 -2.33612 -1.30296e-009 8.75239e-006 -1.47603e-008 2.11018 23.9189 0.354809 -1.30827 -2.40047 1.17111 37.721 1.82741 0.161475 34.8795 -10.7744 15.7192 7.92357 14.671 32.3754 -13.1639 9.54054 -2.11747 -45.4996 3.64715 -3.47251 -26.8637 -6.1487 -4.49703 -2.73376 26.4364 -19.3496 5.82328 9.61819 -0.917488 0.641218 -21.3978 -6.14542 -4.39795 -18.7314 -7.4363 -1.5942 57.5118 -14.8307 11.1442 -32.2414 2.18809 0.0462048 0.000530889 0.662642 
18.0316 90.9746 -1.13854 -7.3754 0.650646 -91.3919 1.35522 -22.1265 -2.12032 1.71484 57.0874 18.2023 -12.2963 -28.9345 -2.23298 -1.30296e-009 8.75239e-006 -1.47603e-008 1.98236 24.1228 0.35659 -1.1553 -2.62297 1.10538 37.796 1.82795 0.157208 35.1915 -10.0359 15.2876 7.80169 14.3044 30.8061 -13.5519 9.50036 -1.84814 -45.5492 3.65603 -3.48211 -26.7956 -4.7114 -5.66505 -1.78599 25.5625 -20.9289 5.82328 9.61819 -0.917488 0.667174 -21.4173 -6.08501 -4.5477 -18.9376 -7.3297 -1.57767 57.0601 -14.9063 11.1487 -31.8967 2.15398 0.0462048 0.000530889 0.662642 
18.1026 91.4377 -1.04672 -6.98468 0.455855 -91.4883 0.961352 -21.9692 -2.37385 1.67903 55.7833 18.6333 -11.8773 -28.1506 -2.06664 -1.30296e-009 8.75239e-006 -1.47603e-008 1.70015 24.077 0.378831 -0.882063 -2.87247 1.00984 38.0507 1.82766 0.137817 35.3857 -9.03917 14.9536 7.4291 14.1556 28.8844 -13.3398 9.46515 -1.45575 -45.6458 3.67508 -3.50409 -26.7205 -4.34021 -6.47342 -0.986911 25.3324 -22.2195 5.82328 9.61819 -0.917488 0.65314 -21.2303 -5.86013 -4.58286 -18.9184 -6.93554 -1.5415 55.9304 -15.1322 11.1031 -31.2105 2.07432 0.0462048 0.000530889 0.662642 
18.0748 92.2507 -0.962484 -6.54562 0.255122 -91.5787 0.641744 -21.3199 -2.49644 1.6045 53.5034 19.0216 -11.2239 -26.9798 -1.82588 -1.30296e-009 8.75239e-006 -1.47603e-008 1.41828 23.7969 0.366962 -0.561724 -3.12592 0.873774 38.377 1.8261 0.105611 35.5416 -7.80683 14.6897 6.7919 14.2281 26.4071 -12.7776 9.44898 -1.11008 -45.7296 3.68919 -3.51848 -26.7364 -4.59173 -7.04977 -0.661423 25.334 -22.7912 5.82328 9.61819 -0.917488 0.519901 -20.8628 -5.64728 -4.58432 -18.4197 -6.58527 -1.47515 53.8374 -15.4084 10.8868 -30.0558 1.91362 0.0462048 0.000530889 0.662642 
17.9318 93.4458 -0.894785 -6.09716 0.118332 -91.5998 0.451208 -20.0545 -2.57601 1.50059 50.1093 19.3441 -10.38 -25.351 -1.52705 -1.30296e-009 8.75239e-006 -1.47603e-008 1.29445 23.2701 0.316148 -0.296223 -3.32384 0.737246 38.486 1.82279 0.0890836 35.8649 -6.30887 14.2929 6.36984 13.8182 23.5176 -12.5073 9.43708 -0.889714 -45.804 3.69858 -3.52525 -26.8091 -4.70661 -7.48378 -0.854882 25.2342 -22.5191 5.82328 9.61819 -0.917488 0.318093 -20.3104 -5.47659 -4.54252 -17.2495 -6.46926 -1.37566 50.5487 -15.5857 10.4179 -28.4156 1.66418 0.0462048 0.000530889 0.662642 
17.6779 94.9311 -0.853809 -5.62202 0.0471961 -91.5945 0.405394 -18.2333 -2.6314 1.38604 45.6959 19.5693 -9.45457 -23.2936 -1.20857 -1.30296e-009 8.75239e-006 -1.47603e-008 1.30282 22.4467 0.271807 -0.0895914 -3.40385 0.640575 38.3542 1.82107 0.0993935 36.484 -5.43531 13.6446 6.53989 13.2777 20.5087 -12.7421 9.40875 -0.701027 -45.8619 3.70532 -3.52944 -26.9019 -4.50135 -7.77181 -1.2763 25.3564 -21.7566 5.82328 9.61819 -0.917488 0.169055 -19.6507 -5.24814 -4.43677 -15.461 -6.5763 -1.25792 46.1213 -15.5908 9.73994 -26.3694 1.35962 0.0462048 0.000530889 0.662642 
17.3398 96.5135 -0.845962 -5.09053 -0.0357405 -91.604 0.426125 -16.0504 -2.62033 1.27788 40.5455 19.6909 -8.51566 -20.9818 -0.907535 -1.30296e-009 8.75239e-006 -1.47603e-008 1.27149 21.317 0.28142 0.1179 -3.36211 0.591164 38.2406 1.81978 0.115083 37.4769 -7.49032 12.8212 7.28554 15.2157 17.4327 -13.0268 9.38474 -0.580944 -45.8141 3.69406 -3.51517 -27.048 -3.90033 -7.875 -1.64311 25.8244 -21.0215 5.82328 9.61819 -0.917488 0.0871056 -18.9285 -4.97108 -4.30109 -13.314 -6.76828 -1.1455 40.9451 -15.4918 9.01606 -24.0563 1.05558 0.0462048 0.000530889 0.662642 
